/* XPM */
static char *d769f880eb6c4d0bf504004fb030178cLVWxZyeulnJBrkE8[] = {
/* columns rows colors chars-per-pixel */
"64 64 175 2 ",
"   c #150B05",
".  c #1A0E07",
"X  c #170F09",
"o  c #1D120B",
"O  c #24150C",
"+  c #28170D",
"@  c #25180E",
"#  c #2B1A0E",
"$  c #301C0F",
"%  c #251910",
"&  c #2D1C11",
"*  c #321E11",
"=  c #352114",
"-  c #3C2516",
";  c #3E2817",
":  c #35261A",
">  c #3D2618",
",  c #3E2919",
"<  c #402616",
"1  c #402716",
"2  c #402717",
"3  c #412717",
"4  c #402517",
"5  c #412717",
"6  c #412817",
"7  c #422817",
"8  c #412817",
"9  c #402618",
"0  c #412718",
"q  c #412718",
"w  c #402818",
"e  c #412818",
"r  c #402918",
"t  c #412918",
"y  c #402819",
"u  c #412919",
"i  c #422818",
"p  c #422918",
"a  c #432918",
"s  c #422919",
"d  c #402A19",
"f  c #412A19",
"g  c #422A18",
"h  c #422A19",
"j  c #432A19",
"k  c #432B19",
"l  c #40281A",
"z  c #432B1A",
"x  c #442918",
"c  c #442919",
"v  c #442A18",
"b  c #452A19",
"n  c #442B19",
"m  c #452B19",
"M  c #442A1A",
"N  c #442B1A",
"B  c #452B1A",
"V  c #442A1B",
"C  c #472B1A",
"Z  c #462B1B",
"A  c #422C1A",
"S  c #452C19",
"D  c #452C1A",
"F  c #472C1A",
"G  c #472D1A",
"H  c #462C1B",
"J  c #472C1B",
"K  c #462D1B",
"L  c #472D1B",
"P  c #422C1D",
"I  c #402D1F",
"U  c #452D1C",
"Y  c #442D1D",
"T  c #472C1C",
"R  c #442D1E",
"E  c #442B1A",
"W  c #482C1A",
"Q  c #482D1A",
"!  c #482D1B",
"~  c #492D1B",
"^  c #492E1B",
"/  c #4A2E1A",
"(  c #4A2E1B",
")  c #4B2E1B",
"_  c #4B2F1B",
"`  c #482D1C",
"'  c #482E1C",
"]  c #492E1C",
"[  c #4A2E1C",
"{  c #4B2E1C",
"}  c #4A2F1C",
"|  c #4B2F1C",
" . c #4A2E1D",
".. c #4B2E1D",
"X. c #4B2F1D",
"o. c #4C2C1C",
"O. c #4C2F1C",
"+. c #4D2F1C",
"@. c #4C2F1D",
"#. c #4D2F1D",
"$. c #4C2F1E",
"%. c #4A2E1C",
"&. c #47311E",
"*. c #4A301D",
"=. c #4C301C",
"-. c #4D301C",
";. c #4C301D",
":. c #4D301D",
">. c #4C311D",
",. c #4D311D",
"<. c #4E301C",
"1. c #4E301D",
"2. c #4E311D",
"3. c #4C301E",
"4. c #4D311E",
"5. c #4E311E",
"6. c #4F311E",
"7. c #4F311F",
"8. c #4E321E",
"9. c #4F331E",
"0. c #4F321F",
"q. c #4F331F",
"w. c #4D311E",
"e. c #50321E",
"r. c #51331E",
"t. c #50321F",
"y. c #50331F",
"u. c #51331F",
"i. c #50341F",
"p. c #51341F",
"a. c #52351F",
"s. c #51331F",
"d. c #402F21",
"f. c #4A2F20",
"g. c #483020",
"h. c #493020",
"j. c #4A3120",
"k. c #4D3321",
"l. c #4F3824",
"z. c #523320",
"x. c #513520",
"c. c #523420",
"v. c #523520",
"b. c #533520",
"n. c #533620",
"m. c #533621",
"M. c #543420",
"N. c #543421",
"B. c #543620",
"V. c #543621",
"C. c #553621",
"Z. c #543721",
"A. c #553721",
"S. c #563621",
"D. c #563721",
"F. c #573721",
"G. c #563722",
"H. c #573722",
"J. c #533521",
"K. c #583722",
"L. c #5A3624",
"P. c #563822",
"I. c #583822",
"U. c #583823",
"Y. c #593823",
"T. c #593923",
"R. c #5A3923",
"E. c #5B3C25",
"W. c #5E3E28",
"Q. c #603E26",
"!. c #603F29",
"~. c #5F4027",
"^. c #5F4128",
"/. c #604027",
"(. c #624128",
/* pixels */
"A k , , 2.q.a.C.q.*.*.x.A.x.x.2.k - - W [ & Z Q 0 # @ o o o o . O o O & % + o o = Z Q 2.k > d.T = # & > > I 0 > k k - = & & = & ",
"L k k k q.C.a.A.a.=.Q 2.C.x.x.2.[ Q W [ [ > +.Q 5 = # % o + & * & & = = - = & % = k L Q , * d.d.: - > > > > 0 = = = - & # # & = ",
"2.2.L L x.A.C.C.2.C.C.a.R.R.K.C.C.x.x.z.u.[ k 5 0 0 2.L * * c c I Q +.+.k k k A 6 5 6 - = % : % % > *.[ T - 0 = > > - = = - ; ; ",
"2.2.*.Q 2.x.x.2.u.T.T.K.T.C.C.u.2.+.k.2.+.[ Z 5 - +.C.x.N.+.W c Z Z Q - O O & Z k k - - = % % % % > [ *.+.- - = k Z k = = - 6 A ",
"2.2.Q L k Q [ Q C.R.R.K.U.K.C.z.k.+.+.2.<.<.<.c = 5 T [ f.+.- * Z 0 O * - - , Q W L 6 Z - % % : , f.f.f.I - - 5 7 k - - - - ; 6 ",
"L L - * $ = = Z R.K.C.C.x.C.C.x.+.[ [ +.7.o.* c +.T > > 9 & + - W T * - - k [ W +.+.Q Q L = O & = : > : & & * = * = # $ = = - - ",
"L A k k - > = u.T.x.+.+.+.u.u.2.+.+.+.<.+.* * 7.z.2.2.+.o.- 0 Z [ Q <.c * = o.5 - 7 Z L k = % o o % : * = = = = * * = 5 - - - - ",
"q.L 6 L 2.k = Q u.u.+.Q +.u.u.u.u.<.u.+.* + # - 0 Z +.[ Z * 0 Z W W <.<.7.o.W * + * - - - = + O o % * f.g.I = = * W Z Z Z , ; 6 ",
"u.2.Q Q Q = + O 0 +.+.Q +.u.C.C.o.7.o.* + # # # $ * = 5 - - Z Q +.Q 5 - Q o.= o X + = - 4 * O O O O & : : & O O * 4 o.T W T o.0 ",
"E.E.K.a.C.u.= . = +.W +.z.+.+.+.o.4 * + # # * - r.a.E.E.E.T.T.E.z.C.r.Z 5 $ # O X & = 4 x 7 # $ * * & * & .   O * o.<.<.<.<.u.+.",
"E.K.C.C.C.C.r.Z = $ Q K.U.z.[ * # + + # # * - +.E.E.E.E.T.T.a.a.e.u.u.a.2.; O O > [ u.+.c * * W T Z - * * * # = o.+.+.W Z +.N.z.",
"E.C.a.N.C.C.C.E.Z + Z 2.L.U.C.Z * + $ 4 4 * - K.E.E.E.E.E.T.a.u.e.u.u.u.a.A.$ * Z <.N.r.<.4 4 W o.T W c c c +.W W W 4 - W u.C.C.",
"E.a.<.<.u.r.r.Z 0 [ T - = = * # + + * $.+.Z <.E.E.K.K.K.T.E.K.<.=.=.r.r.=.- k Z 0 = * = # + - W W +.+.+.+.Z 7 5 - ; 6 ; - 5 Q a.",
"u.u.e.e.u.r.5 * +.z.N.N.z.z.0 # O O 9 $.<.Q A.T.r.<.<.e.C.a.a.u.<.=.9.=.* = 2.a.u.u.k.[ * = +.<.<.<.<.o.o.o.o.c = 6 L A Z 5 - Z ",
"r.r.e.e.u.7 # * Z Z 7.z.z.k.0 = * - f.f.T 4 a.a.<.=.<.<.a.a.u.u.9.9.=.* # = S =.2.z.u.T - - W <.r.<.W o.+.<.o.Z = - L L L A Z Q ",
"K.a.u.e.5 + # # $ * * = 0 - * > 0 c o.c * O + Q q.=.=.9.a.T.a.u.9.=.$ + + # # $ * = 0 * = k - * 4 * * 5 5 4 - - = = - 6 6 L Q a.",
"K.a.o.7 + # # $ * $ - - 7 W Q <.u.a.a.2.Q # . 7 Q [ 2.2.z.C.r.2.o.* + + # * & # # + * * * 4 * $ $ * = 7 7 5 5 < < - * 7 7 7 +.r.",
"+ # # + # # * 4 - 5 E.Q.Q.Q.Q.Q.W.T.K.K.A.A.=.6 Z U.R.R.2.= + + + + # # * : 4 4 * & * * > c c * = = - 5 6 Z 7 Z 7 7 7 - - - * = ",
"+ # # # * * * 5 = 2.Q.Q.Q.Q.Q.K.T.a.a.a.C.a.A.a.k.x.N.R.U.k.* # + # * 4 * 4 4 : 4 * * V f.N.7.c - = - - = - 5 Z W W W 4 4 4 * * ",
"O + # * N.7.<.+.W T.Q.Q.Q.E.Q.Q.E.a.a.C.a.C.A.2.k T f.[ k & + + # 4 7.f.f.f.9 4 * f.o.N.L.7.N.N.Z 6 u.C.+.5 = k +.u.<.7 - * $ $ ",
"+ O O & N.N.L.o.a.Q.E.T.A.T.E.E.R.a.u.2.a.a.2.- T x.2.k.T > # O + 4 7.z.7.o.o.4 f.L.L.L.L.o.o.o.+.Q z.C.T.z.Z 0 0 [ +.- $ $ + + ",
"T 9 * T N.N.z.f.a.W.a.a.2.u.C.C.C.C.a.a.a.=.& - z.x.x.C.x.m.> = 4 f.7.f.4 o.o.o.7.o.L.L.N.o.o.N.+.- - Q 2.+.0 * > 0 > - 5 5 7 7 ",
"f.o.o.o.f.f.f.* - A.C.a.a.C.C.T.T.A.C.a.u.& + # * 0 T +.k.[ I j.$.o.4 4 7.N.7.o.7.o.o.L.o.L.o.N.z.Z - 5 T Z Z 5 k - - > > 0 o.+.",
"L.E.L.L.L.z.4 O   k a.x.a.u.K.L.W.a.a.Q = # # & * * * * > = , j.7.f.f.z.o.o.N.N.N.7.N.L.L.o.N.N.N.+.u.u.u.W Z Q u.z.2.L T [ +.+.",
"Q.Q.Q.Q.Q.Q.T.=   * u.+.f.L.N.o.L - - # # # * * 9 * * # = T k.C.L.L.R.R.m.j.[ z.L.L.L.L.N.$.7.7.<.Z +.u.Q k Q C.T.E.T.2.T 2.x.C.",
"Q.E.C.K.E.W.E.u.. O - r.L.L.N.# O # 7 7 c c 9 - 9 - - c a.a.C.a.N.7.a.C.A.U.T Z 7.U.L.L.N.z.N.7.o.c +.+.W Z u.C.K.C.u.*.2.q.C.C.",
"T.a.a.C.C.a.; & = Z +.N.L.Q.L.# + * 2.2.7.7.7.+.Z T 7.U.E.E.E.A.z.x.C.C.x.[ T x.N.N.U.7.7.o.z.7.N.o.<.u.2.u.2.Z W 2.u.a.q.a.a.a.",
"A.a.K.a.a.k & - K.L.N.<.$.L.N.* + = +.z.7.L.f.c * T N.U.E.W.W.T.u.z.a.x.L - z.x.k.f.N.T o.o.o.L.L.W 7 u.u.2.Q Z k Q x.C.a.a.a.a.",
"T.<.a.q.S + & *.R.E.U.U.z.0 T * * L.N.N.z.T - o.0 - +.z.A.R.A.C.u.u.u.Q Z *.j.2.f.[ T T T 9 - T <.c * 4 L [ u.2.L , 2.a.a.q.<.a.",
"=.S ; - # # # # * 0 k T c > > * 0 f.+.c - T N.L.+.Z k L 2.q.2.a.a.a.7 5 2.x.N.x.z.+.z.N.L.N.T 0 * - * 4 A L *.*.*.A = ; *.=.=.2.",
"+ # + + # # # & = & & [ L.L.N.k.f.7.T 0 o.N.L.7.T [ +.[ [ *.[ - = = # = 0 Z f.2.f.0 f.N.N.L.N.z.c > 0 W &.2.*.*.A k - = & = = - ",
"+ # # # # # = = > > = T L.N.N.L.E.Q.Q.W.E.E.N.T T [ f.z.k.x.2.- - 6 Z 0 = - - > 0 c f.L.L.7.+.0 - 0 k Z q.m.k.T - = - = = = & $ ",
"5 7 7 Z S L L Z 0 > 0 z.m.U.E.E.^.(.(./.~.^.^.E.*.- = , [ z.k > e.a.u.+.=.Q Z = - [ z.f.0 : = & ; N.R.f.- Q *., ; Q =.=.L L 6 6 ",
"a.a.a.e.<.<.u.x.2.+.T k.m.U.U.E.E.^.(./.P.U.~.(.W.Q + + * 0 * - e.u.u.u.<.Q C.a.j.f.0 * = - , , A R.W.N.Z - k ; 2.2.2.2.q.q.a.a.",
"a.r.u.a.a.u.x.x.C.E.x.> > A *.q.x.E.W.~.^.(.(.(.q.- - k 2.T > Z u.a.T.T.2.2.E.E.W.m., : I A , ; T k.z.L.a.S ; S *.2.2.a.a.x.a.a.",
"u.a.a.C.T.C.A.R.R.W.E.m.x.k.j.*.*.T &.k.U.^.P.&.; q.W.(.(.(.E.A.a.T.K.T.2.Z Z Z , * * , A *.k.k.x.U.R.R./.E.E.~.W.R.T.A.2.2.a.a.",
"Q 2.a.C.E.T.C.E.W.E.E.U.N.m.m.x.U.P.U.j., T T k.E.^.(.^.E.E.^.^.^.R.R.A.k & % # & = , , &.P.~.~.R.U.P.E.~.~.~.E.Q.E.W.E.T.a.*.Q ",
"+.Q 2.C.A.2.[ x.C.2.*.*.[ *.j.*.&.x.j.A > T m.P.E.E.(./.E.P.E.P.A.*.[ - = = = = = > , , q.~.Z.m.m.x.m.m.A.A.E.P.T.a.E.A.A.a.[ k ",
"6 A - - - # & - k 2.m.E.W.W.^.E.k.* = A k.U.E.W.^.^.A.A.m.A.A.R.A.x.*.; : , , j.k.k.L &.E.~.~.a.m.A.m.m.A.P.m.a.&.S *.=.*.*.L L ",
"q.A.E.E.E.*.* + * - I j.*.k.k.2.> , k.R.W.W.W.W.W.U.E.(.(.(.(.(.(.(.(.^.A.T = k.C.x.L a.E.E.~.a.k.a.a.x.a.m.a.&.9.a.E.~.E.P.m.q.",
"~.(.(.(.^.~.P.&.= # = # * = - = * [ x.U.U.P.E.E.A.x.W.W.W.E.E.A.C.x.m.N.A.A., [ 2.[ k q.P.P.a.a.q.q.=.q.x.A.A.x.E.E.E.~.E.E.E.E.",
"^.(.(.(.~.P.~.^.*.& = - * # # & # # = T l.U.l., = 6 q.q.2.*.*.*.[ k.x.k.[ L - I T k A a.m.A.Z.a.q.q.q.a.m.A.R.C.~.E.E.~.~.E.a.E.",
"(.(.(.(.^.^.Z.>.*.k.E.W.E.*.k > A *.; = = [ k.T Z 2.C.T.T.C.C.a.A.x.C.x.C.K.a.u.[ k k *.m.E.~.m.a.P.E.W.A.k.[ x.a.E.~./.~.~.~.E.",
"(.(.(.(.Z.&.a.~.(.(.^.(./.^.^.U.*.A ; x.E.E.E.W.W.W.E.W.W.W.T.a.a.x.A.C.K.E.W.W.W.W.A.2.&.l.P.m.a.P.A.a.2.k.2.T 9.9.a.E.a.E.E.E.",
"(.(.(.E.=.A.P.A.~.~./.(.^.(.~.W.R.L $ a.W.W.E.E.T.A.A.A.W.E.A.a.2.2.m.A.R.E.E.Q.W.E.Q.R.k.j.l.m.P.a.q.>.z.L.k.[ =.q.2.A.P.E.P.E.",
"(.(.^.k.; &.&.k <.E.A.U.R.x.q.L , = $ Q C.R.W.R.a.2.2.x.a.m.x.x.x.x.x.A.W.W.E.W.E.W.E.E.U.T g.&.&.A &.A.N.z.+.[ ; ; - , &.9.q.9.",
"U.E.q.; = - ; ; k &.L L R.E.~.E.E.E.E.E.W.x.u.u.x.x.x.x.A.T.A.m.x.A.E.E.A.R.W.W.E.E.E.E.U.*.- - : = = - +.k.+.k $ = - ; L *.a.a.",
"j., - L A.W.~.~.E.6 - C.(.(.(.(.(././././.Q.W.2.q.A.A.A.T.W.A.m.A.x.A.U.x.x.a.C.C.T.a.+.[ k.k.; - ; = # * , [ 2.x.A.A.2.&.&.&.>.",
", T P.j.T P.W.^.W.k = A./.W.E.T.A.x.a.m.m.A.A.&.&.q.A.W.^.E.A.m.x.x.a.k.u.x.x.x.z.f.f.z.7.N.N.f.; - ; ; = ; , , j.m.a.2.k.q.&.k ",
", T *.= & - T j.j.- 6 a.C.x.a.a.x.A.A.A.A.A.a.=.=.&.=.a.P.m.m.m.x.a.a.x.x.z.k.T T z.L.L.U.7.7.z.&.S q.a.k.T , = = , ; L *.2.[ L ",
"= = = & - L >.q.C.A.W.W.Q./.~.E.A.T.T.A.A.E.~.W.W.T.q.=.*.>.m.a.C.C.U.x.u.Q 0 [ 7.L.L.L.L.f.k.f.2.<.q.P.U.U.*., - = = ; ; 6 ; ; ",
"+ # # + a.(./.~.(.!.W.E.W././.E.A.a.a.T.R.R.W././.(././.E.>.l.l.x.x.C.[ [ +.+.[ f.7.N.N.z.N.N.k.u.; - &.2.2.T k &.L , & # = = - ",
"A 6 = # S E.~.~./.E.A.C.a.W.E.a.A.a.a.a.A.W./.(.Q.(./././.E.k.l.P.k.*.2.a.z.z.z.7.f.N.L.N.k.N.N.C.[ *.x.A.W.E.U.q.&., = = = ; Z ",
"E.W.~.~.E.~.~.Z.A.A.a.a.A.T.T.T.A.T.T.A.T.W./.(.!././.Q./.Q.A.A.~.E.W.W.T.C.z.z.L.L.L.U.L.N.N.N.x.2.2.a.a.C.A.A.E.~.P.>.*.k.a.a.",
"(.(.(.(.(.(.(.Z.2.a.A.A.T.E.E.E.T.A.a.W./.T.P.E.W.E.E.W.Q.Q./.~.~./.~.E.~.~.R.z.L.L.L.L.N.N.x.x.k.W 2.x.a.a.A.E.~.~.~.m.m.~.E.E.",
"~.P.P.P.a.a.~.~.k.*.a.T.Q././.E.a.T.T.T.T.a.A.A.C.A.a.T.T.T.T.E.W././.A.A.W./.Q.f.7.U.L.N.N.m.x.u.[ z.z.2.m.U.A.a.q.>.>.q.m.A.P.",
"a.a.l.m.m.P.m.>.A A &.q.A.~.~.R.P.P.A.a.a.m.A.A.A.a.- ; &.>.m.m.A.~.~./.~.(.^.>.- ; q.A.A.A.m.U.C.*.=.q.>.q.q.>.=.a.m.m.m.l.a.a.",
"~.P.P.P.P.P.P.E.E.E.A.x.k.a.x.A.A.P.A.P.P.A.E.E.~.A.q.q.*.*.*.k.&.=.x.P.W.A.&.A q.E.~.E.E.E.m.m.C.L ; q.q.a.m.P.a.k.P.P.Z.Z.Z.Z.",
"~.Z.m.m.P.E.U.~././.(.(.(.P.k.k.m.P.A.E.E.a.E.E.P.E.A.A.x.x.m.P.A.A.*., A A q.E.^.^.~.m.P.P.E.m.z.T - A q.m.P.P.E.l.a.A.A.A.P.~.",
"~.m.m.m.Z.P.E.~.(.(.(./.(.(.P.&.k.l.l.m.=.L q.m.q.&.A *.q.q.T [ 2.*.- ; *.P.P.P.E.~.~.P.E.^.~.P.L k &.m.m.P.~.~.E.Z.>.=.a.m.P.P.",
"Z.P.P.P.P.P.~.~.^.^.~.~.A.k.&.- = : &.; = = = A a.A.E.E.~.E.P.A & = j.l.A.P.^.W.~.~.~.~.~.~.k., k T j.x.~.E.~.P.A.a.a.q.>.2.q.m.",
"~.P.P.P.P.~.~.E.~.~.Z.a.~.E.~.E.~.E.~.~.E.*.= = , L f.*.>.m.j., A j.U.E.E.^.W.W.~.^.~.^.P.l.g.g.j.&.j.k.m.E.P.m.q.l.m.m.m.l.a.P.",
"~.P.P.P.P.~.P.a.m.&.; 9.(.(.^.^.~.~.~.E.E.~.P.; # & & & = = = = *.x.P.P.U.R.A.A.^.~.~.^.l.j.k.k.P.x.&.I &.&.>.*.a.m.P.P.P.m.Z.E.",
"P.P.P.E.m.a.a.<.k = : l.^.P.Z.m.l.>.&.>.q.q.l.; + & & + @ $ $ # & = g.P.E.m.L - , , d.g.l.g.g.k.W.E.x.L , , &.&.a.a.m.Z.P.P.Z.P."
};