/* XPM */
static char *db084b49106b401b90894b69129ca34c6WqVPNACr4dUZreV[] = {
/* columns rows colors chars-per-pixel */
"64 64 124 2 ",
"   c #030306",
".  c #050608",
"X  c #06080A",
"o  c #0A0D0E",
"O  c #0D0F11",
"+  c #0E1312",
"@  c #111615",
"#  c #131816",
"$  c #151B1A",
"%  c #191F1D",
"&  c #1A221F",
"*  c #1A1F21",
"=  c #1C2422",
"-  c #1F2925",
";  c #212B27",
":  c #222D2A",
">  c #25312C",
",  c #273530",
"<  c #293731",
"1  c #2C3B35",
"2  c #2E3E38",
"3  c #303F37",
"4  c #303F38",
"5  c #33433C",
"6  c #384A3F",
"7  c #374740",
"8  c #384740",
"9  c #374A41",
"0  c #394C43",
"q  c #3D5047",
"w  c #3E524A",
"e  c #41554C",
"r  c #44594E",
"t  c #475E52",
"y  c #455E52",
"u  c #475E54",
"i  c #455B51",
"p  c #495E52",
"a  c #495E54",
"s  c #495E54",
"d  c #496054",
"f  c #496055",
"g  c #496155",
"h  c #4A6054",
"j  c #4A6055",
"k  c #4A6155",
"l  c #4A6157",
"z  c #4C6157",
"x  c #4A6457",
"c  c #4B6156",
"v  c #4C6158",
"b  c #4C6458",
"n  c #4D6458",
"m  c #4D645A",
"M  c #4D655A",
"N  c #4F655B",
"B  c #4F675A",
"V  c #4F675B",
"C  c #4F675D",
"Z  c #4E665A",
"A  c #50675D",
"S  c #50685D",
"D  c #506B5D",
"F  c #526B5E",
"G  c #516A5D",
"H  c #546D60",
"J  c #556E60",
"K  c #546E61",
"L  c #556E61",
"P  c #556E63",
"I  c #556F63",
"U  c #576F63",
"Y  c #576F64",
"T  c #546D61",
"R  c #577264",
"E  c #5A7265",
"W  c #5A7365",
"Q  c #5A7367",
"!  c #5A7567",
"~  c #5B7567",
"^  c #5A7466",
"/  c #5A7368",
"(  c #5B7568",
")  c #5B7668",
"_  c #5D776B",
"`  c #5E776B",
"'  c #5C7668",
"]  c #5E7A6B",
"[  c #5E7A6D",
"{  c #607A6D",
"}  c #607B6D",
"|  c #607A6E",
" . c #617B6E",
".. c #617B6F",
"X. c #617C6E",
"o. c #637C6F",
"O. c #627C6E",
"+. c #637E71",
"@. c #647E71",
"#. c #647F72",
"$. c #647F72",
"%. c #668173",
"&. c #6A8577",
"*. c #688376",
"=. c #6A8579",
"-. c #6B8679",
";. c #6B867A",
":. c #6D8579",
">. c #6E887B",
",. c #6D8879",
"<. c #728B7F",
"1. c #738D81",
"2. c #768F82",
"3. c #768F84",
"4. c #748D81",
"5. c #779184",
"6. c #799285",
"7. c #7A9488",
"8. c #7C9589",
"9. c #839A8F",
"0. c #879D94",
"q. c #879C92",
"w. c #889D94",
"e. c #92A49D",
/* pixels */
"$ = = o = # @ O X + > $ $ % : 2 - ; > = % @ $ $ # @ $ + > > ; = 7 5 5 7 < % > < - 5 q : d q ; # @ # < 9 > # # - $ = = * = = - > ",
"% - > ; # # # $ X * w $ & & 5 w 5 5 < = $ $ $ @ # + $ # & 2 H 0 < 9 5 1 e 0 1 w 9 : < > 5 : 2 2 1 ; : > > - # = - # : = - = = $ ",
"$ : = % % @ * + $ : 2 > $ = = w u = 5 , : ; = ; & $ & < = & s 6 8 5 2 $ # 7 < : & - < < 5 > > w < : & - > = & - y * q = $ $ $ & ",
"= @ $ @ = = # # + = = = - # + # ; w 9 > > : 6 = & % ; 1 = : & < < 0 < 4 : & # 1 > & $ @ & & & & # $ & $ & $ % % = - 1 - & $ % # ",
"# % % = % - O X $ $ = = & = # $ % & & 0 : = : - = ; 0 2 2 & ; 3 > = < = - # 5 w 2 e 1 = # $ & $ $ # % # % $ % # $ # + & 5 & $ $ ",
"$ # ; $ % X + + @ # = = > < # $ @ + % - 4 : : - ; & r 0 1 & 3 > 2 b = 4 % # 1 , < 2 < 2 - & # # # # # # $ & $ # # $ $ % # = - $ ",
"- # - - % , - - & : , = & r 5 q $ # # % = : 2 5 = : < F > # $ & w q 5 > - = - 5 : < 5 : @ $ + & & # # $ % - % + # $ $ $ $ = - : ",
"% > > @ # # # = & = - - @ = < $ @ + + % < - = - 1 & & < 0 < & ; - : : - 2 1 - 5 5 < 1 - & $ % + & $ # # + 2 r = = # & $ $ & : $ ",
"- * < > # % % 4 > = & % $ + X # . # - > m m = = , - = + - = = 1 : 2 > 9 i , 0 e d < 4 = - % - + + + + $ - M w q - $ # @ @ $ & @ ",
"# # > = = = = $ 5 - < & = + $ $ & @ 9 5 > = 7 0 : $ : % 7 i Y : = 2 5 s H v e } +.9 v = + + + + o + + = = & 5 = - = # # @ @ + @ ",
"# , : - & $ & % > = & & $ + * $ 2 ; & & % ; = 7 0 : * @ , 2 i q : 4 1 ' / @.e : : 5 = 5 X X @ $ + # $ 5 , + # - < $ @ & $ @ + o ",
"- 9 > = % < 3 & - & % = , < # = = > & : % * = # : = = * : : : - : 4 = < < 2 D < : > @ 1 + X : + @ & $ - - @ @ > % & & $ @ + o + ",
"> & $ & $ $ % = $ # # # # 9 $ # - : $ - < 1 & @ = $ = : 0 1 2 ; 1 4 2 % $ = : 1 = < 0 7 : o = = = = $ - = $ = $ % = @ $ o + $ $ ",
"# = @ 9 m & = - , = = - 2 - $ # & $ # $ # & > - = $ - = ; : = : $ ; , = = & > 2 5 < 9 & - = = 5 5 q 5 = - = @ + @ @ = $ + @ # & ",
"& 6 D d 2 % & $ : 2 - 5 i w , % & : & $ # @ > = $ $ & $ % % = = $ = 1 5 = % = : < 8 2 2 = 0 5 b 0 w 0 : 5 # + @ $ $ - : = # # $ ",
"2 q } @.5 - = # = v r w , 5 1 - = 9 : 1 - $ : = # - 2 # % % > = = $ 4 2 # % = > > : 2 < 0 ;.0 b M d i - - = + $ & 5 & = < & @ $ ",
"9 k 6 z r < & = ; m 5 > $ 5 d 5 & $ $ : : & & & @ : 2 = $ & * $ = = ; ; % = = < < ; > > r } ' p %.C d 2 $ % # > 9 b < : : < $ * ",
"2 0 r ~ 3 6 < r 1 i w : & - q r 5 & # $ $ $ & % @ # = > 2 : < : < , ; > = $ < : < > ; = 1 6 2 Q C 0 5 - $ % # = 0 2 : : < : = = ",
"5 ; & e r z p } >.7.C ; > 5 > > & # + + + # $ $ + % = - 0 : > 4 , 1 = : = = > ; = 4 > = ; = ; < < i 5 > % % , : , 2 : % & $ $ $ ",
": & - < 5 ; > 5 ( >.} r r , > < > # X o + # & = @ @ @ = > 5 2 < 4 : $ ; < < = & & % < : = : ; : 1 5 & & % - 7 9 > : - # + @ = % ",
"+ @ 9 D 9 2 0 } e q :.o.Y q 1 < 5 : $ o + + % > - % % - , 8 8 < 7 , ; : > : ; = > = ; < > = 4 : 2 & @ # % 5 > % = = = & + % = i ",
"O % 3 ] m e < n < < q 5 d e i ; < 0 > = % , 4 0 5 % % = = : 8 < 0 2 < : : = = = > : = > : O > ; = + = % 2 : # - 5 6 : = $ : 0 5 ",
"+ # = 1 &.q.F 5 > 5 D 2 ; = A 9 7 8 < : , : 4 = % # % + + O $ : e 5 e r 4 < 4 > & # & = ; ; = % $ $ & % - > # & : : & < ; > 5 > ",
"# & ; 1 > k 1 3 ] q S 5 > = ; : 2 C u 4 $ $ : $ $ $ # @ $ @ = > 9 5 1 < , > ; 5 ; & ; ; ; 4 ; % # @ # & < > # # $ = & 5 2 2 : = ",
"5 0 d 9 < > r H D p 4 5 4 > = % % 1 C < = = = = $ @ @ @ % % 2 2 < 5 : : ; = = & > : * @ @ @ # @ # @ = 5 3 = = = > ; = 7 < 5 5 : ",
"2 i r 1 ; 3 / o.e 5 3 2 : ; ; ; : < i 5 7 - - - $ % = % % = = - = % & ; = < < ; : > * @ + O # + # o = 3 < ; ; = > ; = = = : 2 : ",
"< k 1 & : 1 d W r < < > < , : = = : 9 5 7 > , 2 : 2 > $ @ - % ; : @ = : : : = $ @ @ % @ + # & = % o = ; @ @ $ = $ * = : * ; : ; ",
"@ o = 1 q 0 V Y ' 0 5 < > = = = , = < < 9 - 5 q , 1 > = @ + # : < % @ & < = @ @ @ * @ @ $ $ = : = ; 3 1 # $ : = $ % : , : : : < ",
"o o o e =.@.@.+.:.e 1 < = % $ $ : : - > > 1 : w 0 w : % # % $ % : = $ % % % $ = = @ @ @ $ @ $ @ % % 5 0 0 < : * @ = : , < 1 - > ",
"o X . = &.6.H m s p 4 2 0 $ % % , - 2 - = 1 1 - 4 5 H 2 = @ + # = 1 ; $ $ > > & % @ @ % + + % = : > 3 A 2 2 5 % = 1 4 : 2 9 : 7 ",
"O X . O F 4.} :.Y < < v d - = @ - < 5 0 0 r 0 0 : - 0 < < # O @ = > & @ # # $ # # $ # : < ; > > ; : > e 4 % $ ; : > : 0 w e 4 : ",
"X o X   6 2.3.' q > = 4 s 5 o $ 4 7 e ( v e 2 9 w : : & > 0 : $ : = ; : @ $ # $ # % : 0 e < * ; - $ # 3 s 3 $ = ; > > > 4 : * $ ",
"+ - o X 5 1 r 6 C 1 = < 1 7 H r : 0 i / r H q : < 2 > - = , > 5 > 5 : = % @ @ # # # , 2 - > w < < , $ , e : > : : : ; & + + % % ",
"& o + o + ; } %.&.' #.7 < 7 r 7 $ * : 5 7 : : = 0 0 2 O # - > : % : = @ = % @ + & > 7 5 % - 0 0 5 - : = > 7 : ; 1 9 : = + @ 1 i ",
"# $ & + # n h <.@.5 e 4 ; 1 < < * 2 7 < r w 7 = : < 5 + + < 2 - = % @ + @ @ @ * 2 > 2 2 5 # w 2 < % - $ $ : * = = 4 4 % @ # : = ",
"> 5 , $ & , F %.: C v - - * < 0 < 5 > 0 < < v 5 9 2 > 2 = 5 2 5 > = $ = * $ = = 5 - = - 5 & > > * = $ % $ = = # % : % $ + o $ = ",
"9 5 6 - e & 1 < : r @.< > = * < = # - w 0 X % + 2 > - w 2 5 < 2 % # * : , = : , = - = : 2 0 % : : - @ & @ , , 2 5 5 : % $ X @ $ ",
"$ + 9 ~ e n ; > 9 5 3 z 8 , 4 q 7 * 4 1 : O X = = ; * < ; : % - % $ $ % % ; : 9 9 i > : e 1 & % : % $ % % 5 W s D 1 5 : ; @ @ ; ",
"m i R 4.$.~ A 6 : 5 4 6 < r : : w % - , 0 0 4 : $ = ; w = < i - $ % % @ * = 4 = % & = : , > % = - $ = = = , , = > 9 5 0 0 : < 5 ",
"( %.9.e.q.R <.0 5 3 : = Y 4 2 > : - : * 8 4 e = % & = 4 : ; ; ; & $ = % $ $ = = % > > # + # % > > , : = # # + 9 z w 1 7 : , 4 4 ",
"<.q.8.>.~ < ; < 5 = = 9 < = : 2 = = = $ ; - 0 9 $ $ : & + < 2 4 = > = & $ $ % % = ; % % # = = > 4 1 ; > $ + + % r n < : & $ = & ",
"9.<.w.%.5 5 q > % $ # = = $ $ $ = : = % & < 5 > $ $ % + X # : $ = ; = & $ $ % # $ % ; # = : = = > e > = $ @ % @ $ : > = + > > o ",
"4.9.( > ; < < & $ @ @ $ + # @ + + @ @ @ $ ; > : & $ > - O # @ # : - = : = $ % # $ % * # & % $ $ = 1 1 > + @ = % $ $ # # & $ > 2 ",
"1.r : = 1 1 # > 0 : % $ O @ = @ + + @ + @ $ < < < 2 - w > + + + & 5 : = ; = $ @ @ = : % # $ - & = * % % @ + # # $ $ & $ & @ $ 5 ",
"F : > e D 1 = 5 5 % = ; & : > - # + @ @ > e : 2 - - - w = o + X @ r ; ; = 2 % $ % = < > $ # > : : : % # % + + $ @ $ = $ # : & # ",
"< 5 V w 6 9 > $ # > ; $ % - - : % % = = & > 4 & $ @ > > - X + o . % = < < % # # % $ $ 1 > 6 , > 4 ; 1 4 > $ $ & & & % # @ % = # ",
"> 9 < 5 > 5 < = < ; : 2 - & = % $ % ; = % # $ % > = = - 2 + o X % > q 4 2 % @ = % # # + 2 - < 5 5 4 0 i i , = $ ; > & & & ; = $ ",
"; : 2 %.S &.- > 0 2 < : , % @ $ & $ $ % @ % % = > = $ # = , - = ; 0 1 : < < # ; = + $ $ - = = > 0 0 4 9 w 0 , # ; & & & - - 5 : ",
"= > 5 } %.k 3 W d 5 q 9 = ; % ; > - & $ $ & = # $ % + o o , < 2 = 4 r : < r 5 - = - - > & % * = : e 0 e 4 : % = & & $ $ % @ % $ ",
"1 = r 4 : 6 5 r < 2 5 > 5 1 : : 9 5 - @ $ & = # + + & $ + X & q = = = : = 2 : & + % + % & & = & * < r 0 & = : ; = $ @ # # + @ $ ",
"5 5 = = & & < 5 > < < > 9 5 2 < , 2 = % & $ $ + + $ + $ - + # - = = = - & = ; % + + % + @ $ = - & & ; : $ & = 9 & $ $ % + + $ $ ",
"# 1 > $ # & 0 5 5 & $ : e < q : # # % % $ + & & @ + + @ $ 2 = + + = 7 = + % - $ + + + + # $ $ # % % = $ $ < = < % @ @ $ & % = : ",
"+ % $ & $ , > & 9 F F 0 9 ; & : = @ % $ # # > = # + @ $ # - $ + o < : % - % = + + # + = # = * $ # # + @ # % = % @ $ $ $ % $ = > ",
"$ + # $ < - & $ 6 r 5 r > : $ % < $ # = = = = = # + + # % # # - > : # = : & + + + # + # - = @ * $ o @ $ $ $ $ $ @ : = $ = $ $ & ",
"+ # # @ # $ : 1 % $ + + $ % & = $ q - + # # % $ # O + $ - $ + # 3 = * @ + + @ @ # + + + + $ * = % @ , 9 , % = * $ @ = : # = : $ ",
"+ + + @ % = $ % : & $ o @ @ % $ $ = # = + = + # # = , # = $ + + $ @ $ @ + + @ 1 w 5 > 2 , $ $ - = : 1 4 < % @ $ = @ + % : @ # @ ",
"$ > $ o $ = - 5 ; ; @ o @ ; = # $ + # : 5 > = < w 4 : - @ o + o @ @ % + > % % = + - : = # 5 > = 5 < = + @ & & > , @ @ = = < > ; ",
"9 - > $ $ & & > @ @ o @ + @ = $ # + = # = % q 1 , = % @ + + + o o + > 2 = 1 < $ @ + @ @ = & < - < m 5 @ 2 D $ = = = , = = @ @ $ ",
"5 < = % & = $ # @ @ ; ; @ @ $ = # $ $ # = = @ = $ & > @ @ + @ O @ = : % @ , > # @ + + # @ - = x r : & $ % % # $ ; : = % $ @ @ % ",
"& = & & - = $ $ @ o @ + O @ = = @ & = - # + @ & > $ $ = @ @ @ @ # & > = # % > % $ $ @ O $ @ - # & & & & # @ $ # % : % = O O @ + ",
"$ = # - ; # @ @ o % $ + + # # # # = & & $ # @ + = % # $ @ @ $ = ; : > : : ; @ @ = & $ @ # % * * = # $ $ @ > = & % % & @ % @ O % ",
"$ 2 x 5 # + + @ : O o + + @ @ > = # $ < $ @ # # $ # @ # $ ; * # = * * : 1 % @ > 5 , > : $ $ = & & - # # = ; : ; $ = @ O @ $ = = ",
"$ # + + o @ @ o + + o o @ + % < & & - & # $ $ $ $ $ # % = = $ $ $ @ = 4 s = @ ; - > 6 > < > $ $ # & $ + # = $ $ = > # @ @ = = O ",
"# & # O + + o o o o o @ @ @ % > , > = # $ & $ # $ $ $ = % $ % $ ; * = ; ; 3 < % + # = # + @ + = 5 $ > > # # @ @ $ = $ % $ % % = "
};